<svg version="1.1" xmlns="http://www.w3.org/2000/svg" width="800" height="600" viewBox="0 0 800 600" preserveAspectRatio="xMidYMid meet" xmlns:xlink="http://www.w3.org/1999/xlink" transform="matrix(-1,1.2246467991473532e-16,1.2246467991473532e-16,1,0,0)">

  <g fill="#000000" stroke="none" transform="scale(200.100000,-200.100000) translate(800,0)">
    <path d="
      M602.8 366.4
      l-46.8 -112.2
      l0 -19.7
      l0 -19.6
      l53.8 0.2
      c29.5 0 57.9 0.1 63 0
      l9.2 -0.1
      l0 -37.5
      l0 -37.5
      l27 0
      l27 0
      l0 37.5
      l0 37.5
      l20 0
      l20 0
      l0 25
      l0 25
      l-20 0
      l-20 0
      l0 44.6
      l0 44.5
      l-24 -0.3
      l-23.9 -0.3
      l-0.5 -5
      c-0.3 -2.7 -1.3 -19.4 -2.1 -37
      c-0.8 -17.6 -1.8 -35.3 -2.1 -39.2
      l-0.6 -7.3
      l-31.9 0
      c-17.5 0 -31.9 0.3 -31.9 0.6
      c0 0.5 45.5 112.3 72.1 177.3
      c3.3 8 5.6 14.8 5.2 15.2
      c-0.5 0.4 -11.1 5.2 -23.8 10.6
      l-23 9.9
      l-46.7 -112.2
      z
    "></path>
    <path d="
      M120.1 475.8
      c-0.5 -1.3 -21.4 -51.5 -46.5 -111.7
      l-45.6 -109.3
      l0 -20
      l0 -19.9
      l62.8 0.3
      l62.7 0.3
      l0.3 -37.8
      l0.2 -37.7
      l27 0
      l27 0
      l0 37.5
      l0 37.5
      l19.5 0
      l19.5 0
      l0 25
      l0 25
      l-19.5 0
      l-19.5 0
      l0 44.5
      l0 44.5
      l-24.5 0
      l-24.5 0
      l0 -3.2
      c0 -1.8 -0.9 -19.7 -2 -39.8
      c-1.1 -20.1 -2 -38.6 -2 -41.2
      l0 -4.8
      l-32.4 0
      l-32.4 0
      l7.5 18.3
      c20.5 50.2 70.5 173.3 70.6 174
      c0.2 0.7 -44.7 20.7 -46.5 20.7
      c-0.5 0 -1.2 -1 -1.7 -2.2
      z
    "></path>
    <path d="
      M389.7 475
      c-41.5 -4.7 -69.6 -31.4 -85.2 -81
      c-13.1 -41.4 -14.8 -111.6 -4.1 -162.5
      c3.9 -18.4 13.8 -42.5 23.4 -56.8
      c13.7 -20.2 34.7 -34.2 57.6 -38.3
      c10.4 -1.8 29.9 -1.8 40.1 0
      c36.7 6.7 61.5 32 76.6 78.1
      c13.8 42.2 15.9 113.7 4.8 164
      c-10.8 49 -35.9 82 -70.3 92.5
      c-12.6 3.9 -29.7 5.4 -42.9 4
      z
      m29.3 -52.7
      c3.6 -1.7 7.8 -4.2 9.4 -5.5
      l2.8 -2.4
      l-38.8 -80.3
      c-36.3 -75.1 -38.9 -80.1 -39.7 -77
      c-1.5 6.4 -2.1 64.5 -0.8 80.4
      c2.5 30.9 5.9 46.3 13.7 62.2
      c3.6 7.3 5.9 10.5 11.4 15.6
      c9.2 8.7 14.5 10.8 26.5 10.4
      c7.7 -0.2 10 -0.7 15.5 -3.4
      z
      m33 -90.3
      c2.4 -41.5 -1 -84.2 -8.6 -107.5
      c-6.5 -20.1 -16 -32.9 -28 -37.5
      c-8.8 -3.4 -21.9 -3.3 -29.7 0.3
      c-6.1 2.8 -12.7 7.4 -12.7 8.8
      c0 0.5 17.2 36.7 38.2 80.5
      c23.5 49.1 38.4 79 38.9 78.2
      c0.4 -0.7 1.3 -11 1.9 -22.8
      z
    "></path>
  </g>
</svg>